/* XPM */
static char *emacs[] = {
/* columns rows colors chars-per-pixel */
"48 48 171 2 ",
"   c #02022F",
".  c #000035",
"X  c #02023B",
"o  c #0E0E3B",
"O  c #050441",
"+  c #0C0C44",
"@  c #0E0D49",
"#  c #100F4B",
"$  c #121146",
"%  c #14144B",
"&  c #1B1B4D",
"*  c #1F1E54",
"=  c #242441",
"-  c #23234F",
";  c #3D3D46",
":  c #242452",
">  c #2D2D55",
",  c #24245C",
"<  c #29275A",
"1  c #2C2B5C",
"2  c #3E3D5F",
"3  c #232164",
"4  c #2E2D66",
"5  c #312F60",
"6  c #333363",
"7  c #3A3A66",
"8  c #34336C",
"9  c #383569",
"0  c #3B3B6A",
"q  c #3F3C73",
"w  c #373678",
"e  c #3E3C7E",
"r  c #403F65",
"t  c #403F6F",
"y  c #413F76",
"u  c #413F79",
"i  c #414156",
"p  c #4F4F5D",
"a  c #4E4E66",
"s  c #43426C",
"d  c #4B4B6C",
"f  c #515066",
"g  c #52526D",
"h  c #58586A",
"j  c #454475",
"k  c #4A4974",
"l  c #45427D",
"z  c #4D4C79",
"x  c #535371",
"c  c #54537B",
"v  c #5A5A7C",
"b  c #606068",
"n  c #656575",
"m  c #636479",
"M  c #6F6F79",
"N  c #70717F",
"B  c #393680",
"V  c #3F3D85",
"C  c #413F88",
"Z  c #474483",
"A  c #494686",
"S  c #4A488E",
"D  c #565484",
"F  c #5B5B82",
"G  c #5D5C8C",
"H  c #474492",
"J  c #4C4A93",
"K  c #4D499D",
"L  c #514E94",
"P  c #524F99",
"I  c #545292",
"U  c #5A5895",
"Y  c #54519C",
"T  c #5A579A",
"R  c #5C5A9B",
"E  c #67678B",
"W  c #6C6C8C",
"Q  c #74738A",
"!  c #79798B",
"~  c #66649E",
"^  c #737395",
"/  c #7A7A93",
"(  c #787898",
")  c #4F4AA7",
"_  c #524DA6",
"`  c #524EA9",
"'  c #5552A4",
"]  c #5A57A6",
"[  c #5C5AA4",
"{  c #5652AB",
"}  c #5A56AA",
"|  c #5D5AAC",
" . c #5E5BB1",
".. c #615EAD",
"X. c #615DB1",
"o. c #6967A7",
"O. c #6461AE",
"+. c #6967AA",
"@. c #6B69A9",
"#. c #7878A5",
"$. c #7C7BA8",
"%. c #6663B1",
"&. c #6966B2",
"*. c #6D6AB4",
"=. c #716EB5",
"-. c #7371B7",
";. c #7876B4",
":. c #7674B8",
">. c #7976BA",
",. c #7D7BBC",
"<. c #817EBE",
"1. c #83838E",
"2. c #8D8D96",
"3. c #9B9B9E",
"4. c #8383A0",
"5. c #8280BF",
"6. c #918FB3",
"7. c #A3A2A5",
"8. c #ACACAD",
"9. c #B1B1AF",
"0. c #ADACB1",
"q. c #B5B5B7",
"w. c #B8B8B4",
"e. c #8583C1",
"r. c #8986C2",
"t. c #8D8BC4",
"y. c #918EC6",
"u. c #928FC8",
"i. c #9291C7",
"p. c #9A99C7",
"a. c #9694C9",
"s. c #9997CA",
"d. c #9C9BCC",
"f. c #A09ECE",
"g. c #A2A0CF",
"h. c #A5A3D1",
"j. c #A9A7D3",
"k. c #ADABD4",
"l. c #B1AFD6",
"z. c #B1AFD8",
"x. c #B1B0D7",
"c. c #B5B4D9",
"v. c #BBBADC",
"b. c #C0BFD1",
"n. c #C1BFDF",
"m. c #C1C1C3",
"M. c #CECED5",
"N. c #C2C1DF",
"B. c #CCCCDA",
"V. c #D4D4DA",
"C. c #C4C3E1",
"Z. c #C8C7E5",
"A. c #CDCCE5",
"S. c #D1D0E7",
"D. c #DADAE0",
"F. c #D4D3E9",
"G. c #D8D7EB",
"H. c #DBDBED",
"J. c #DFE0EF",
"K. c #E2E1EF",
"L. c #E4E4F1",
"P. c #E8E7F3",
"I. c #ECECF5",
"U. c #EFEFF8",
"Y. c #F0EFF7",
"T. c #F0EFF8",
"R. c #F1F0F7",
"E. c #F3F3F9",
"W. c #F8F7FB",
"Q. c #FAFAFD",
"!. c None",
/* pixels */
"!.!.!.!.!.!.!.!.!.!.!.!.!.!.!.!.!.!.{ { { { { { { { !.!.!.!.!.!.!.!.!.!.!.!.!.!.!.!.!.!.!.!.!.!.",
"!.!.!.!.!.!.!.!.!.!.!.!.!.!.{ { { { { { { { { ` { { { {  .{ !.!.!.!.!.!.!.!.!.!.!.!.!.!.!.!.!.!.",
"!.!.!.!.!.!.!.!.!.!.!.!.} { { { { { {  . .|  . . . .{ { { { { { !.!.!.!.!.!.!.!.!.!.!.!.!.!.!.!.",
"!.!.!.!.!.!.!.!.!.!.!.{ { { } } { | X.X.&.&.*.*.&.*.&.&.X. .{ { { { !.!.!.!.!.!.!.!.!.!.!.!.!.!.",
"!.!.!.!.!.!.!.!.!.{ } { { { } } ..&.*.=.:.:.<.>.>.>.:.-.=.%. .{ ` { { { !.!.!.!.!.!.!.!.!.!.!.!.",
"!.!.!.!.!.!.!.!.] { { } } } X.O.=.:.:.<.<.<.<.r.s.f.f.f.f.f.f.u.5.X.) { { !.!.!.!.!.!.!.!.!.!.!.",
"!.!.!.!.!.!.!.{ } { { } | O.*.=.:.>.<.e.e.r.t.y.j.C.H.I.E.W.W.W.E.L.u.) { { !.!.!.!.!.!.!.!.!.!.",
"!.!.!.!.!.!.} } { ] } | O.*.=.=.:.<.<.e.r.t.y.y.t.t.y.s.h.k.F.W.E.W.E.k.{ { { !.!.!.!.!.!.!.!.!.",
"!.!.!.!.!.{ } { ] } | O.*.=.<.j.c.v.v.c.l.j.f.d.a.u.y.t.r.<.<.n.E.T.E.W.>.` { { !.!.!.!.!.!.!.!.",
"!.!.!.!.] { } } } | ..&.*.<.G.T.E.T.E.E.Y.Y.Y.P.H.F.C.v.z.j.z.F.E.Y.Y.W.f.) { { !.!.!.!.!.!.!.!.",
"!.!.!.!.{ ] ] } | ..%.=.=.y.I.P.P.I.I.I.Y.Y.R.E.W.W.E.E.W.E.W.T.T.Y.Y.W.g.{ { { { !.!.!.!.!.!.!.",
"!.!.!.} } } } | ..X.&.-.<.r.H.I.P.I.P.I.Y.E.E.E.T.W.E.W.W.E.T.T.Y.I.Y.E.t.' ' } { } !.!.!.!.!.!.",
"!.!.{ } } } } } ....*.:.<.<.j.Y.P.I.I.I.P.A.v.c.l.n.n.A.F.L.I.T.E.T.T.z.X.| ] } } { !.!.!.!.!.!.",
"!.!.} } } } } | ..%.-.>.<.<.r.S.E.P.I.P.j.s.s.d.s.s.a.u.u.u.u.d.g.f.r.....] } { {  .C !.!.!.!.!.",
"!.!.} } } } | | ..&.-.>.<.r.r.s.H.I.I.I.v.s.f.f.f.d.s.a.u.r.e.<.-.&.%...| | } { ] K e b !.!.!.!.",
"!.} } } } } } | ..&.-.>.<.r.t.t.d.L.Y.I.Y.c.s.d.s.s.a.u.t.e.<.<.:.&.%...| | } X.H O N m.; !.!.!.",
"!.} } } | } } | ..&.=.>.,.e.r.t.y.f.G.R.I.I.N.a.a.a.y.t.r.e.,.-.*.%.%.O.| |  .B + m q.g !.!.!.!.",
"!.} | } } } | | ..%.*.-.,.5.r.t.y.t.d.S.I.I.I.S.d.5.t.r.5.,.:.*.%.%.%.| | | V O d q.d   !.!.!.!.",
"| | | } | } | | | O.&.-.>.,.5.5.5.r.r.r.c.P.U.I.K.g.,.<.,.:.*.*.%.%.%...%.V X d 9.g X 6 !.!.!.!.",
"] ] } } | | | | ........*.,.t.d.j.j.j.f.i.d.N.P.I.K.x.;.*.*.*.*.%.%.%.%.V @ s 7.x . < Z !.!.!.!.",
"} | ] } | | | | } ..5.d.v.H.L.I.I.I.I.P.K.A.c.S.K.L.P.c.>.&.*.&.&.%.%.J % 7 3.h . & u P !.!.!.!.",
"} } }  .| | | ' =.Z.I.U.R.I.I.P.P.P.P.P.P.P.P.J.J.J.J.P.F.,.&.&.%.&.P # s 2.x . $ q J ' !.!.!.!.",
"} ] }  .} | ' i.I.E.U.I.I.L.P.I.P.P.P.I.I.I.I.I.I.P.L.L.P.J.s.&.&.Y , q 1.g . $ 9 S ' } !.!.!.!.",
" .} ] | | } <.I.E.U.U.I.I.I.I.I.U.I.G.Z.v.l.k.j.h.d.s.y.r.r.<.&.%.9 7 ! a . X 6 A ' ] ] !.!.!.!.",
"] } } | | ' c.E.I.I.I.I.U.I.I.E.G.a.-.=.=.*.*.*.*.*.&.&.&.&.%.&.w W 1.f . X 1 A Y } } } !.!.!.!.",
"} | | } | { c.U.L.P.I.I.U.E.R.f.=.%.=.=.-.-.-.;.-.-.-.*.=.&.*.Z s Q h s $ : l P } } } } !.!.!.!.",
"!.| | | | { t.P.L.L.L.I.I.E.x...&.-.-.-.-.>.>.>.>.-.:.-.=.=.S 0 ( g X & 7 q P } | } } } !.!.!.!.",
"!.| | | | | ] k.I.J.J.P.I.I.e...=.-.-.>.,.,.>.>.,.,.,.:.:.[ 6 ^ v # . & j P [ } | } } } !.!.!.!.",
"!.| | | |  .] %.v.I.J.J.J.I.G.;.%.-.>.,.,.,.5.<.5.,.,.,.+., W W % . & y L [ | | } } } } !.!.!.!.",
"!.!.| [ | |  .] | c.J.J.J.J.U.F.a.>.-.,.<.5.5.5.5.5.5.;.8 v ^ , . % t L [ | | } | } } !.!.!.!.!.",
"!.!.| | | | | | | | t.J.P.J.J.I.U.H.g.5.,.,.5.5.5.5.r.8 0 4.6 X o s I [ | } | } } | | !.!.!.!.!.",
"!.!.| | | | | ..| | | -.x.J.I.L.L.U.U.J.A.v.d.5.5.e.Z 7 ( s X + s U +.%.O.| | } | } !.!.!.!.!.!.",
"!.!.!.| | | | ......| | ..t.N.J.I.P.I.U.E.E.R.H.Z.$.& W c O X 7 G @.=.+.O.| } | } } !.!.!.!.!.!.",
"!.!.!.| | | ..| | ....O.&.=.:.i.N.L.I.I.E.E.E.Q.D.6 F c o X r G @.-.-.&.| | | | } !.!.!.!.!.!.!.",
"!.!.!.!.| | | | | ....%.=.,.5.5.r.p.k.c.N.F.L.P.s 0 c + X n 8.b.k.:.*.%.} | | | | !.!.!.!.!.!.!.",
"!.!.!.!.!.| ..| ..| ..%.=.;.5.r.t.y.t.t.t.i.i.^ v k + X g 9.V.R.Q.Z.=.| | | } | !.!.!.!.!.!.!.!.",
"!.!.!.!.!.| | | | | ..&.;.5.t.a.d.d.f.h.h.c.#.% / g . f 8.V.I.Q.Q.I.:.] | | | !.!.!.!.!.!.!.!.!.",
"!.!.!.!.!.!. . .| ..| O.:.r.d.k.v.S.H.J.I.B.7 8 + > M 7.M.L.K.Z.h.:.} | |  .!.!.!.!.!.!.!.!.!.!.",
"!.!.!.!.!.!.!.R O...| | O.%.=.>.5.r.a.f.k.z & % . - Q 6.p.y.,.%.] ] | | ] !.!.!.!.!.!.!.!.!.!.!.",
"!.!.!.!.!.!.!.!.T  .....| ..%.*.-.,.,.e.~ * % . : v ~ =.=.@.%.| | |  .} !.!.!.!.!.!.!.!.!.!.!.!.",
"!.!.!.!.!.!.!.!.!.c .... .| ....%.%.*.+., + X - z R +.&.%...| |  . .D !.!.!.!.!.!.!.!.!.!.!.!.!.",
"!.!.!.!.!.!.!.!.!.!.f R .. ...| | | %.V @ X & j I [ ..| | ..|  .T x !.!.!.!.!.!.!.!.!.!.!.!.!.!.",
"!.!.!.!.!.!.!.!.!.!.!.!.g R  .....X.Y # . : j L ] | .. . . .[ g !.!.!.!.!.!.!.!.!.!.!.!.!.!.!.!.",
"!.!.!.!.!.!.!.!.!.!.!.!.!.!.f c T O.3 O 4 Z Y  . ...| U c f !.!.!.!.!.!.!.!.!.!.!.!.!.!.!.!.!.!.",
"!.!.!.!.!.!.!.!.!.!.!.!.!.!.!.!.!.i o = 2 z D D D x p !.!.!.!.!.!.!.!.!.!.!.!.!.!.!.!.!.!.!.!.!.",
"!.!.!.!.!.!.!.!.!.!.!.!.!.!.!.!.!.!.!.!.!.!.!.!.!.!.!.!.!.!.!.!.!.!.!.!.!.!.!.!.!.!.!.!.!.!.!.!.",
"!.!.!.!.!.!.!.!.!.!.!.!.!.!.!.!.!.!.!.!.!.!.!.!.!.!.!.!.!.!.!.!.!.!.!.!.!.!.!.!.!.!.!.!.!.!.!.!.",
"!.!.!.!.!.!.!.!.!.!.!.!.!.!.!.!.!.!.!.!.!.!.!.!.!.!.!.!.!.!.!.!.!.!.!.!.!.!.!.!.!.!.!.!.!.!.!.!."
};
